<svg width="1060" height="468" xmlns="http://www.w3.org/2000/svg" font-family="'Segoe UI', Arial, sans-serif">
<rect width="1060" height="468" fill="#f1f5f9"/>
<text x="530" y="22" text-anchor="middle" font-size="14" font-weight="700" fill="#0f172a">ERD — Neo-Kanban AI · PostgreSQL 16</text>

<!-- ═══════════════════════════ RELATIONSHIP LINES (behind tables) ═══════════════════════════ -->
<defs>
  <marker id="one" markerWidth="6" markerHeight="10" refX="3" refY="5" orient="auto">
    <line x1="3" y1="1" x2="3" y2="9" stroke="#64748b" stroke-width="1.5"/>
  </marker>
  <marker id="many" markerWidth="10" markerHeight="10" refX="1" refY="5" orient="auto">
    <polyline points="9,1 1,5 9,9" fill="none" stroke="#64748b" stroke-width="1.5"/>
  </marker>
</defs>

<!-- users ←→ project_members (user_id) -->
<line x1="205" y1="88" x2="215" y2="88" stroke="#64748b" stroke-width="1.2"/>
<text x="208" y="85" font-size="7" fill="#64748b">1</text><text x="208" y="94" font-size="7" fill="#64748b">N</text>

<!-- projects ←→ project_members (project_id) -->
<polyline points="420,105 415,105 415,96 410,96" fill="none" stroke="#64748b" stroke-width="1.2"/>

<!-- projects → tasks (project_id) -->
<line x1="615" y1="103" x2="625" y2="103" stroke="#64748b" stroke-width="1.2"/>
<text x="617" y="100" font-size="7" fill="#64748b">1</text><text x="617" y="109" font-size="7" fill="#64748b">N</text>

<!-- projects → agent_runs (go over top) -->
<polyline points="517,40 517,32 927,32 927,40" fill="none" stroke="#94a3b8" stroke-width="1" stroke-dasharray="4,2"/>

<!-- projects → documents (vertical same col) -->
<line x1="517" y1="171" x2="517" y2="191" stroke="#64748b" stroke-width="1.2"/>
<text x="520" y="185" font-size="7" fill="#64748b">1:N</text>

<!-- projects → intents (route right of col3) -->
<polyline points="615,120 623,120 623,354 615,354" fill="none" stroke="#94a3b8" stroke-width="1" stroke-dasharray="4,2"/>

<!-- projects → feedbacks (route left of col3) -->
<polyline points="420,130 412,130 412,356 410,356" fill="none" stroke="#94a3b8" stroke-width="1" stroke-dasharray="4,2"/>

<!-- tasks → agent_runs (task_id) -->
<line x1="820" y1="100" x2="830" y2="100" stroke="#64748b" stroke-width="1.2"/>
<text x="822" y="97" font-size="7" fill="#64748b">1:N</text>

<!-- tasks ↔ task_dependencies (same col, vertical) -->
<line x1="722" y1="171" x2="722" y2="191" stroke="#64748b" stroke-width="1.2"/>
<text x="725" y="185" font-size="7" fill="#64748b">M:N</text>

<!-- tasks → diffs (right side, then down) -->
<polyline points="820,150 828,150 828,241 830,241" fill="none" stroke="#64748b" stroke-width="1.2"/>
<text x="822" y="148" font-size="7" fill="#64748b">1:N</text>

<!-- tasks → review_reports (left side, skip task_deps) -->
<polyline points="625,148 617,148 617,377 625,377" fill="none" stroke="#64748b" stroke-width="1.2"/>
<text x="618" y="146" font-size="7" fill="#64748b">1:N</text>

<!-- tasks → stream_events (long route over top) -->
<polyline points="625,72 625,27 312,27 312,191" fill="none" stroke="#94a3b8" stroke-width="1" stroke-dasharray="4,2"/>

<!-- tasks → audit_logs -->
<polyline points="625,160 107,160 107,191" fill="none" stroke="#94a3b8" stroke-width="1" stroke-dasharray="4,2"/>

<!-- agent_runs → diffs (vertical same col) -->
<line x1="927" y1="156" x2="927" y2="191" stroke="#64748b" stroke-width="1.2"/>
<text x="930" y="178" font-size="7" fill="#64748b">1:N</text>

<!-- agent_runs → review_reports -->
<polyline points="830,128 822,128 822,377 820,377" fill="none" stroke="#64748b" stroke-width="1.2"/>

<!-- agent_runs → stream_events -->
<polyline points="830,56 830,23 312,23 312,191" fill="none" stroke="#94a3b8" stroke-width="1" stroke-dasharray="4,2"/>

<!-- review_reports → review_comments -->
<line x1="820" y1="374" x2="830" y2="374" stroke="#64748b" stroke-width="1.2"/>
<text x="822" y="371" font-size="7" fill="#64748b">1:N</text>

<!-- users → tasks.assigned_to -->
<polyline points="205,60 205,36 722,36 722,40" fill="none" stroke="#94a3b8" stroke-width="1" stroke-dasharray="4,2"/>

<!-- projects → audit_logs -->
<polyline points="420,158 210,158 210,191" fill="none" stroke="#94a3b8" stroke-width="1" stroke-dasharray="4,2"/>

<!-- ═══════════════════════════ TABLES ═══════════════════════════ -->

<!-- ── users ── -->
<rect x="10" y="40" width="195" height="101" fill="white" stroke="#3b82f6" stroke-width="1.5" rx="4"/>
<rect x="10" y="40" width="195" height="24" fill="#dbeafe" rx="4"/><rect x="10" y="58" width="195" height="6" fill="#dbeafe"/>
<text x="107" y="56" text-anchor="middle" font-size="10.5" font-weight="700" fill="#1e40af">users</text>
<rect x="10" y="64" width="195" height="15" fill="#f8fafc"/>
<text x="14" y="74" font-size="7.5" font-weight="700" fill="#92400e">PK</text><text x="30" y="74" font-size="9" fill="#0f172a">id</text><text x="202" y="74" font-size="7.5" fill="#94a3b8" text-anchor="end">uuid</text>
<text x="14" y="89" font-size="7.5" fill="#6366f1">UK</text><text x="30" y="89" font-size="9" fill="#0f172a">email</text><text x="202" y="89" font-size="7.5" fill="#94a3b8" text-anchor="end">varchar(320)</text>
<rect x="10" y="94" width="195" height="15" fill="#f8fafc"/>
<text x="30" y="104" font-size="9" fill="#475569">display_name</text><text x="202" y="104" font-size="7.5" fill="#94a3b8" text-anchor="end">varchar(200)</text>
<text x="30" y="119" font-size="9" fill="#475569">github_id</text><text x="202" y="119" font-size="7.5" fill="#94a3b8" text-anchor="end">varchar(50) ✦</text>
<rect x="10" y="124" width="195" height="15" fill="#f8fafc"/>
<text x="30" y="134" font-size="9" fill="#475569">created_at</text><text x="202" y="134" font-size="7.5" fill="#94a3b8" text-anchor="end">timestamptz</text>

<!-- ── project_members ── -->
<rect x="215" y="40" width="195" height="101" fill="white" stroke="#0d9488" stroke-width="1.5" rx="4"/>
<rect x="215" y="40" width="195" height="24" fill="#ccfbf1" rx="4"/><rect x="215" y="58" width="195" height="6" fill="#ccfbf1"/>
<text x="312" y="56" text-anchor="middle" font-size="10.5" font-weight="700" fill="#134e4a">project_members</text>
<rect x="215" y="64" width="195" height="15" fill="#f8fafc"/>
<text x="219" y="74" font-size="7.5" font-weight="700" fill="#92400e">PK</text><text x="235" y="74" font-size="9" fill="#0f172a">id</text><text x="407" y="74" font-size="7.5" fill="#94a3b8" text-anchor="end">uuid</text>
<text x="219" y="89" font-size="7.5" font-style="italic" fill="#2563eb">FK</text><text x="235" y="89" font-size="9" fill="#0f172a">project_id</text><text x="407" y="89" font-size="7.5" fill="#94a3b8" text-anchor="end">→projects</text>
<rect x="215" y="94" width="195" height="15" fill="#f8fafc"/>
<text x="219" y="104" font-size="7.5" font-style="italic" fill="#2563eb">FK</text><text x="235" y="104" font-size="9" fill="#0f172a">user_id</text><text x="407" y="104" font-size="7.5" fill="#94a3b8" text-anchor="end">→users</text>
<text x="235" y="119" font-size="9" fill="#475569">role</text><text x="407" y="119" font-size="7.5" fill="#94a3b8" text-anchor="end">owner/leader/dev</text>
<rect x="215" y="124" width="195" height="15" fill="#f8fafc"/>
<text x="235" y="134" font-size="9" fill="#475569">joined_at</text><text x="407" y="134" font-size="7.5" fill="#94a3b8" text-anchor="end">timestamptz</text>

<!-- ── projects ── -->
<rect x="420" y="40" width="195" height="131" fill="white" stroke="#22c55e" stroke-width="1.5" rx="4"/>
<rect x="420" y="40" width="195" height="24" fill="#dcfce7" rx="4"/><rect x="420" y="58" width="195" height="6" fill="#dcfce7"/>
<text x="517" y="56" text-anchor="middle" font-size="10.5" font-weight="700" fill="#14532d">projects</text>
<rect x="420" y="64" width="195" height="15" fill="#f8fafc"/>
<text x="424" y="74" font-size="7.5" font-weight="700" fill="#92400e">PK</text><text x="440" y="74" font-size="9" fill="#0f172a">id</text><text x="612" y="74" font-size="7.5" fill="#94a3b8" text-anchor="end">uuid</text>
<text x="440" y="89" font-size="9" fill="#0f172a">name</text><text x="612" y="89" font-size="7.5" fill="#94a3b8" text-anchor="end">varchar(255)</text>
<rect x="420" y="94" width="195" height="15" fill="#f8fafc"/>
<text x="440" y="104" font-size="9" fill="#475569">primary_language</text><text x="612" y="104" font-size="7.5" fill="#94a3b8" text-anchor="end">varchar</text>
<text x="440" y="119" font-size="9" fill="#475569">constitution</text><text x="612" y="119" font-size="7.5" fill="#94a3b8" text-anchor="end">text</text>
<rect x="420" y="124" width="195" height="15" fill="#f8fafc"/>
<text x="440" y="134" font-size="9" fill="#475569">status</text><text x="612" y="134" font-size="7.5" fill="#94a3b8" text-anchor="end">active|archived</text>
<text x="440" y="149" font-size="9" fill="#475569">coding_backend</text><text x="612" y="149" font-size="7.5" fill="#94a3b8" text-anchor="end">groq|claude|gemini</text>
<rect x="420" y="154" width="195" height="15" fill="#f8fafc"/>
<text x="440" y="164" font-size="9" fill="#475569">created_at</text><text x="612" y="164" font-size="7.5" fill="#94a3b8" text-anchor="end">timestamptz</text>

<!-- ── tasks ── -->
<rect x="625" y="40" width="195" height="131" fill="white" stroke="#f59e0b" stroke-width="1.5" rx="4"/>
<rect x="625" y="40" width="195" height="24" fill="#fef3c7" rx="4"/><rect x="625" y="58" width="195" height="6" fill="#fef3c7"/>
<text x="722" y="56" text-anchor="middle" font-size="10.5" font-weight="700" fill="#78350f">tasks</text>
<rect x="625" y="64" width="195" height="15" fill="#f8fafc"/>
<text x="629" y="74" font-size="7.5" font-weight="700" fill="#92400e">PK</text><text x="645" y="74" font-size="9" fill="#0f172a">id</text><text x="817" y="74" font-size="7.5" fill="#94a3b8" text-anchor="end">uuid</text>
<text x="629" y="89" font-size="7.5" font-style="italic" fill="#2563eb">FK</text><text x="645" y="89" font-size="9" fill="#0f172a">project_id</text><text x="817" y="89" font-size="7.5" fill="#94a3b8" text-anchor="end">→projects</text>
<rect x="625" y="94" width="195" height="15" fill="#f8fafc"/>
<text x="629" y="104" font-size="7.5" font-style="italic" fill="#2563eb">FK</text><text x="645" y="104" font-size="9" fill="#475569">assigned_to</text><text x="817" y="104" font-size="7.5" fill="#94a3b8" text-anchor="end">→users ✦</text>
<text x="645" y="119" font-size="9" fill="#0f172a">title</text><text x="817" y="119" font-size="7.5" fill="#94a3b8" text-anchor="end">varchar(500)</text>
<rect x="625" y="124" width="195" height="15" fill="#f8fafc"/>
<text x="645" y="134" font-size="9" fill="#0f172a">status</text><text x="817" y="134" font-size="7.5" fill="#94a3b8" text-anchor="end">todo|in_prog|review|done</text>
<text x="645" y="149" font-size="9" fill="#475569">priority</text><text x="817" y="149" font-size="7.5" fill="#94a3b8" text-anchor="end">int</text>
<rect x="625" y="154" width="195" height="15" fill="#f8fafc"/>
<text x="645" y="164" font-size="9" fill="#475569">is_blocked</text><text x="817" y="164" font-size="7.5" fill="#94a3b8" text-anchor="end">bool</text>

<!-- ── agent_runs ── -->
<rect x="830" y="40" width="195" height="116" fill="white" stroke="#f97316" stroke-width="1.5" rx="4"/>
<rect x="830" y="40" width="195" height="24" fill="#fed7aa" rx="4"/><rect x="830" y="58" width="195" height="6" fill="#fed7aa"/>
<text x="927" y="56" text-anchor="middle" font-size="10.5" font-weight="700" fill="#9a3412">agent_runs</text>
<rect x="830" y="64" width="195" height="15" fill="#f8fafc"/>
<text x="834" y="74" font-size="7.5" font-weight="700" fill="#92400e">PK</text><text x="850" y="74" font-size="9" fill="#0f172a">id</text><text x="1022" y="74" font-size="7.5" fill="#94a3b8" text-anchor="end">uuid</text>
<text x="834" y="89" font-size="7.5" font-style="italic" fill="#2563eb">FK</text><text x="850" y="89" font-size="9" fill="#0f172a">project_id</text><text x="1022" y="89" font-size="7.5" fill="#94a3b8" text-anchor="end">→projects</text>
<rect x="830" y="94" width="195" height="15" fill="#f8fafc"/>
<text x="834" y="104" font-size="7.5" font-style="italic" fill="#2563eb">FK</text><text x="850" y="104" font-size="9" fill="#475569">task_id</text><text x="1022" y="104" font-size="7.5" fill="#94a3b8" text-anchor="end">→tasks ✦</text>
<text x="850" y="119" font-size="9" fill="#0f172a">agent_type</text><text x="1022" y="119" font-size="7.5" fill="#94a3b8" text-anchor="end">architect|coder|reviewer</text>
<rect x="830" y="124" width="195" height="15" fill="#f8fafc"/>
<text x="850" y="134" font-size="9" fill="#0f172a">status</text><text x="1022" y="134" font-size="7.5" fill="#94a3b8" text-anchor="end">running|success|hil…</text>
<text x="850" y="149" font-size="9" fill="#475569">started_at</text><text x="1022" y="149" font-size="7.5" fill="#94a3b8" text-anchor="end">timestamptz</text>

<!-- ══════════════════════ ROW 2 (y=191) ══════════════════════ -->

<!-- ── audit_logs ── -->
<rect x="10" y="191" width="195" height="116" fill="white" stroke="#64748b" stroke-width="1.5" rx="4"/>
<rect x="10" y="191" width="195" height="24" fill="#e2e8f0" rx="4"/><rect x="10" y="209" width="195" height="6" fill="#e2e8f0"/>
<text x="107" y="207" text-anchor="middle" font-size="10.5" font-weight="700" fill="#1e293b">audit_logs</text>
<rect x="10" y="215" width="195" height="15" fill="#f8fafc"/>
<text x="14" y="225" font-size="7.5" font-weight="700" fill="#92400e">PK</text><text x="30" y="225" font-size="9" fill="#0f172a">id</text><text x="202" y="225" font-size="7.5" fill="#94a3b8" text-anchor="end">uuid</text>
<text x="14" y="240" font-size="7.5" font-style="italic" fill="#2563eb">FK</text><text x="30" y="240" font-size="9" fill="#475569">project_id</text><text x="202" y="240" font-size="7.5" fill="#94a3b8" text-anchor="end">→projects ✦</text>
<rect x="10" y="245" width="195" height="15" fill="#f8fafc"/>
<text x="14" y="255" font-size="7.5" font-style="italic" fill="#2563eb">FK</text><text x="30" y="255" font-size="9" fill="#475569">task_id</text><text x="202" y="255" font-size="7.5" fill="#94a3b8" text-anchor="end">→tasks ✦</text>
<text x="30" y="270" font-size="9" fill="#0f172a">action_type</text><text x="202" y="270" font-size="7.5" fill="#94a3b8" text-anchor="end">varchar(100)</text>
<rect x="10" y="275" width="195" height="15" fill="#f8fafc"/>
<text x="30" y="285" font-size="9" fill="#0f172a">result</text><text x="202" y="285" font-size="7.5" fill="#94a3b8" text-anchor="end">success|failure|hil</text>
<text x="30" y="300" font-size="9" fill="#475569">timestamp</text><text x="202" y="300" font-size="7.5" fill="#94a3b8" text-anchor="end">timestamptz</text>

<!-- ── stream_events ── -->
<rect x="215" y="191" width="195" height="101" fill="white" stroke="#64748b" stroke-width="1.5" rx="4"/>
<rect x="215" y="191" width="195" height="24" fill="#e2e8f0" rx="4"/><rect x="215" y="209" width="195" height="6" fill="#e2e8f0"/>
<text x="312" y="207" text-anchor="middle" font-size="10.5" font-weight="700" fill="#1e293b">stream_events</text>
<rect x="215" y="215" width="195" height="15" fill="#f8fafc"/>
<text x="219" y="225" font-size="7.5" font-weight="700" fill="#92400e">PK</text><text x="235" y="225" font-size="9" fill="#0f172a">id</text><text x="407" y="225" font-size="7.5" fill="#94a3b8" text-anchor="end">uuid</text>
<text x="219" y="240" font-size="7.5" font-style="italic" fill="#2563eb">FK</text><text x="235" y="240" font-size="9" fill="#0f172a">task_id</text><text x="407" y="240" font-size="7.5" fill="#94a3b8" text-anchor="end">→tasks</text>
<rect x="215" y="245" width="195" height="15" fill="#f8fafc"/>
<text x="219" y="255" font-size="7.5" font-style="italic" fill="#2563eb">FK</text><text x="235" y="255" font-size="9" fill="#475569">agent_run_id</text><text x="407" y="255" font-size="7.5" fill="#94a3b8" text-anchor="end">→agent_runs ✦</text>
<text x="235" y="270" font-size="9" fill="#0f172a">event_type</text><text x="407" y="270" font-size="7.5" fill="#94a3b8" text-anchor="end">THOUGHT|TOOL|ACTION…</text>
<rect x="215" y="275" width="195" height="15" fill="#f8fafc"/>
<text x="235" y="285" font-size="9" fill="#475569">sequence_number</text><text x="407" y="285" font-size="7.5" fill="#94a3b8" text-anchor="end">int</text>

<!-- ── documents ── -->
<rect x="420" y="191" width="195" height="116" fill="white" stroke="#8b5cf6" stroke-width="1.5" rx="4"/>
<rect x="420" y="191" width="195" height="24" fill="#ede9fe" rx="4"/><rect x="420" y="209" width="195" height="6" fill="#ede9fe"/>
<text x="517" y="207" text-anchor="middle" font-size="10.5" font-weight="700" fill="#4c1d95">documents</text>
<rect x="420" y="215" width="195" height="15" fill="#f8fafc"/>
<text x="424" y="225" font-size="7.5" font-weight="700" fill="#92400e">PK</text><text x="440" y="225" font-size="9" fill="#0f172a">id</text><text x="612" y="225" font-size="7.5" fill="#94a3b8" text-anchor="end">uuid</text>
<text x="424" y="240" font-size="7.5" font-style="italic" fill="#2563eb">FK</text><text x="440" y="240" font-size="9" fill="#0f172a">project_id</text><text x="612" y="240" font-size="7.5" fill="#94a3b8" text-anchor="end">→projects</text>
<rect x="420" y="245" width="195" height="15" fill="#f8fafc"/>
<text x="440" y="255" font-size="9" fill="#0f172a">type</text><text x="612" y="255" font-size="7.5" fill="#94a3b8" text-anchor="end">SPEC | PLAN</text>
<text x="440" y="270" font-size="9" fill="#475569">content</text><text x="612" y="270" font-size="7.5" fill="#94a3b8" text-anchor="end">text</text>
<rect x="420" y="275" width="195" height="15" fill="#f8fafc"/>
<text x="440" y="285" font-size="9" fill="#0f172a">status</text><text x="612" y="285" font-size="7.5" fill="#94a3b8" text-anchor="end">draft|approved|revision</text>
<text x="440" y="300" font-size="9" fill="#475569">version</text><text x="612" y="300" font-size="7.5" fill="#94a3b8" text-anchor="end">int</text>

<!-- ── task_dependencies ── -->
<rect x="625" y="191" width="195" height="71" fill="white" stroke="#f59e0b" stroke-width="1.5" rx="4"/>
<rect x="625" y="191" width="195" height="24" fill="#fef3c7" rx="4"/><rect x="625" y="209" width="195" height="6" fill="#fef3c7"/>
<text x="722" y="207" text-anchor="middle" font-size="10.5" font-weight="700" fill="#78350f">task_dependencies</text>
<rect x="625" y="215" width="195" height="15" fill="#f8fafc"/>
<text x="629" y="225" font-size="6.5" font-weight="700" fill="#92400e">PK/FK</text><text x="651" y="225" font-size="9" fill="#0f172a">task_id</text><text x="817" y="225" font-size="7.5" fill="#94a3b8" text-anchor="end">→tasks</text>
<text x="629" y="240" font-size="6.5" font-weight="700" fill="#92400e">PK/FK</text><text x="651" y="240" font-size="9" fill="#0f172a">depends_on_task_id</text><text x="817" y="240" font-size="7.5" fill="#94a3b8" text-anchor="end">→tasks</text>
<text x="651" y="255" font-size="9" fill="#475569">created_at</text><text x="817" y="255" font-size="7.5" fill="#94a3b8" text-anchor="end">timestamptz</text>

<!-- ── diffs ── -->
<rect x="830" y="191" width="195" height="101" fill="white" stroke="#f97316" stroke-width="1.5" rx="4"/>
<rect x="830" y="191" width="195" height="24" fill="#fed7aa" rx="4"/><rect x="830" y="209" width="195" height="6" fill="#fed7aa"/>
<text x="927" y="207" text-anchor="middle" font-size="10.5" font-weight="700" fill="#9a3412">diffs</text>
<rect x="830" y="215" width="195" height="15" fill="#f8fafc"/>
<text x="834" y="225" font-size="7.5" font-weight="700" fill="#92400e">PK</text><text x="850" y="225" font-size="9" fill="#0f172a">id</text><text x="1022" y="225" font-size="7.5" fill="#94a3b8" text-anchor="end">uuid</text>
<text x="834" y="240" font-size="7.5" font-style="italic" fill="#2563eb">FK</text><text x="850" y="240" font-size="9" fill="#0f172a">task_id</text><text x="1022" y="240" font-size="7.5" fill="#94a3b8" text-anchor="end">→tasks</text>
<rect x="830" y="245" width="195" height="15" fill="#f8fafc"/>
<text x="834" y="255" font-size="7.5" font-style="italic" fill="#2563eb">FK</text><text x="850" y="255" font-size="9" fill="#475569">agent_run_id</text><text x="1022" y="255" font-size="7.5" fill="#94a3b8" text-anchor="end">→agent_runs ✦</text>
<text x="850" y="270" font-size="9" fill="#0f172a">review_status</text><text x="1022" y="270" font-size="7.5" fill="#94a3b8" text-anchor="end">pending|approved|rejected</text>
<rect x="830" y="275" width="195" height="15" fill="#f8fafc"/>
<text x="850" y="285" font-size="9" fill="#475569">created_at</text><text x="1022" y="285" font-size="7.5" fill="#94a3b8" text-anchor="end">timestamptz</text>

<!-- ══════════════════════ ROW 3 (y=327) ══════════════════════ -->

<!-- ── feedbacks ── -->
<rect x="215" y="327" width="195" height="86" fill="white" stroke="#22c55e" stroke-width="1.5" rx="4"/>
<rect x="215" y="327" width="195" height="24" fill="#dcfce7" rx="4"/><rect x="215" y="345" width="195" height="6" fill="#dcfce7"/>
<text x="312" y="343" text-anchor="middle" font-size="10.5" font-weight="700" fill="#14532d">feedbacks</text>
<rect x="215" y="351" width="195" height="15" fill="#f8fafc"/>
<text x="219" y="361" font-size="7.5" font-weight="700" fill="#92400e">PK</text><text x="235" y="361" font-size="9" fill="#0f172a">id</text><text x="407" y="361" font-size="7.5" fill="#94a3b8" text-anchor="end">uuid</text>
<text x="219" y="376" font-size="7.5" font-style="italic" fill="#2563eb">FK</text><text x="235" y="376" font-size="9" fill="#0f172a">project_id</text><text x="407" y="376" font-size="7.5" fill="#94a3b8" text-anchor="end">→projects</text>
<rect x="215" y="381" width="195" height="15" fill="#f8fafc"/>
<text x="235" y="391" font-size="9" fill="#475569">reference_type</text><text x="407" y="391" font-size="7.5" fill="#94a3b8" text-anchor="end">document|task</text>
<text x="235" y="406" font-size="9" fill="#475569">content</text><text x="407" y="406" font-size="7.5" fill="#94a3b8" text-anchor="end">text</text>

<!-- ── intents ── -->
<rect x="420" y="327" width="195" height="86" fill="white" stroke="#8b5cf6" stroke-width="1.5" rx="4"/>
<rect x="420" y="327" width="195" height="24" fill="#ede9fe" rx="4"/><rect x="420" y="345" width="195" height="6" fill="#ede9fe"/>
<text x="517" y="343" text-anchor="middle" font-size="10.5" font-weight="700" fill="#4c1d95">intents</text>
<rect x="420" y="351" width="195" height="15" fill="#f8fafc"/>
<text x="424" y="361" font-size="7.5" font-weight="700" fill="#92400e">PK</text><text x="440" y="361" font-size="9" fill="#0f172a">id</text><text x="612" y="361" font-size="7.5" fill="#94a3b8" text-anchor="end">uuid</text>
<text x="424" y="376" font-size="7.5" font-style="italic" fill="#2563eb">FK</text><text x="440" y="376" font-size="9" fill="#0f172a">project_id</text><text x="612" y="376" font-size="7.5" fill="#94a3b8" text-anchor="end">→projects</text>
<rect x="420" y="381" width="195" height="15" fill="#f8fafc"/>
<text x="440" y="391" font-size="9" fill="#475569">content</text><text x="612" y="391" font-size="7.5" fill="#94a3b8" text-anchor="end">text</text>
<text x="440" y="406" font-size="9" fill="#475569">created_at</text><text x="612" y="406" font-size="7.5" fill="#94a3b8" text-anchor="end">timestamptz</text>

<!-- ── review_reports ── -->
<rect x="625" y="327" width="195" height="101" fill="white" stroke="#ef4444" stroke-width="1.5" rx="4"/>
<rect x="625" y="327" width="195" height="24" fill="#fee2e2" rx="4"/><rect x="625" y="345" width="195" height="6" fill="#fee2e2"/>
<text x="722" y="343" text-anchor="middle" font-size="10.5" font-weight="700" fill="#991b1b">review_reports</text>
<rect x="625" y="351" width="195" height="15" fill="#f8fafc"/>
<text x="629" y="361" font-size="7.5" font-weight="700" fill="#92400e">PK</text><text x="645" y="361" font-size="9" fill="#0f172a">id</text><text x="817" y="361" font-size="7.5" fill="#94a3b8" text-anchor="end">uuid</text>
<text x="629" y="376" font-size="7.5" font-style="italic" fill="#2563eb">FK</text><text x="645" y="376" font-size="9" fill="#0f172a">task_id</text><text x="817" y="376" font-size="7.5" fill="#94a3b8" text-anchor="end">→tasks</text>
<rect x="625" y="381" width="195" height="15" fill="#f8fafc"/>
<text x="629" y="391" font-size="7.5" font-style="italic" fill="#2563eb">FK</text><text x="645" y="391" font-size="9" fill="#475569">agent_run_id</text><text x="817" y="391" font-size="7.5" fill="#94a3b8" text-anchor="end">→agent_runs ✦</text>
<text x="645" y="406" font-size="9" fill="#475569">score</text><text x="817" y="406" font-size="7.5" fill="#94a3b8" text-anchor="end">smallint 0-100</text>
<rect x="625" y="411" width="195" height="15" fill="#f8fafc"/>
<text x="645" y="421" font-size="9" fill="#475569">suggestion</text><text x="817" y="421" font-size="7.5" fill="#94a3b8" text-anchor="end">approve|needs_changes</text>

<!-- ── review_comments ── -->
<rect x="830" y="327" width="195" height="86" fill="white" stroke="#ef4444" stroke-width="1.5" rx="4"/>
<rect x="830" y="327" width="195" height="24" fill="#fee2e2" rx="4"/><rect x="830" y="345" width="195" height="6" fill="#fee2e2"/>
<text x="927" y="343" text-anchor="middle" font-size="10.5" font-weight="700" fill="#991b1b">review_comments</text>
<rect x="830" y="351" width="195" height="15" fill="#f8fafc"/>
<text x="834" y="361" font-size="7.5" font-weight="700" fill="#92400e">PK</text><text x="850" y="361" font-size="9" fill="#0f172a">id</text><text x="1022" y="361" font-size="7.5" fill="#94a3b8" text-anchor="end">uuid</text>
<text x="834" y="376" font-size="7.5" font-style="italic" fill="#2563eb">FK</text><text x="850" y="376" font-size="9" fill="#0f172a">review_report_id</text><text x="1022" y="376" font-size="7.5" fill="#94a3b8" text-anchor="end">→review_reports</text>
<rect x="830" y="381" width="195" height="15" fill="#f8fafc"/>
<text x="850" y="391" font-size="9" fill="#475569">file_path</text><text x="1022" y="391" font-size="7.5" fill="#94a3b8" text-anchor="end">varchar(500)</text>
<text x="850" y="406" font-size="9" fill="#475569">severity</text><text x="1022" y="406" font-size="7.5" fill="#94a3b8" text-anchor="end">info|warning|error</text>

<!-- ═══════════════════════ LEGEND ═══════════════════════ -->
<rect x="10" y="438" width="1040" height="22" fill="#e2e8f0" rx="4"/>
<text x="20" y="452" font-size="8.5" font-weight="700" fill="#92400e">PK</text><text x="30" y="452" font-size="8.5" fill="#334155"> Primary Key</text>
<text x="108" y="452" font-size="8.5" font-style="italic" fill="#2563eb">FK</text><text x="118" y="452" font-size="8.5" fill="#334155"> Foreign Key</text>
<text x="198" y="452" font-size="8.5" fill="#6366f1">UK</text><text x="208" y="452" font-size="8.5" fill="#334155"> Unique Key</text>
<text x="280" y="452" font-size="8.5" fill="#334155">✦ nullable</text>
<line x1="350" y1="449" x2="378" y2="449" stroke="#64748b" stroke-width="1.2"/>
<text x="382" y="452" font-size="8.5" fill="#334155">FK relationship (solid = required)</text>
<line x1="555" y1="449" x2="583" y2="449" stroke="#94a3b8" stroke-width="1" stroke-dasharray="4,2"/>
<text x="587" y="452" font-size="8.5" fill="#334155">FK relationship (dashed = nullable / long-range)</text>
</svg>
